<svg xmlns="http://www.w3.org/2000/svg" height="20px" viewBox="0 -960 960 960" width="20px" fill="#e3e3e3"><path d="M444-792v-120h72v120h-72Zm0 744v-120h72v120h-72Zm348-396v-72h120v72H792Zm-744 0v-72h120v72H48Zm678-231-51-51 84-87 54 54-87 84ZM202-148l-54-54 86-83 51 51-83 86Zm557 0-84-86 51-51 87 83-54 54ZM234-675l-86-84 54-54 83 87-51 51Zm76 365q-70-70-70-170t70-170q70-70 170-70t170 70q70 70 70 170t-70 170q-70 70-170 70t-170-70Zm289-50.5q49-49.5 49-119.75 0-70.24-48.75-119-48.76-48.75-119-48.75Q410-648 361-599.25q-49 48.76-49 119 0 70.25 48.75 119.75 48.76 49.5 119 49.5Q550-311 599-360.5ZM481-481Z"/></svg>